PathFileType	4	(X/Y/Z)	/Users/mathieubourgeois/Desktop/Analyse/Traitement/Sujet_01/Data/Transformed_Sujet_01_velo_100.trc
DataRate	CameraRate	NumFrames	NumMarkers	Units	OrigDataRate	OrigDataStartFrame	OrigNumFrames
120.000000	120.000000	5	35	mm	120.000000	1242	1988
Frame#	Time	RFHD			LFHD			RBHD			LBHD			RSHO			LSHO			CLAV			STRN			T10			RBWT			LBWT			RFWT			LFWT			RRAD			RWRA			RWRB			RCAR			RHUM			LHUM			LRAD			LWRA			LWRB			LCAR			RKNI			RKNE			LKNI			LKNE			RANE			RANI			RTOE			RHEE			LTOE			LANI			LANE			LHEE			
		X1	Y1	Z1	X2	Y2	Z2	X3	Y3	Z3	X4	Y4	Z4	X5	Y5	Z5	X6	Y6	Z6	X7	Y7	Z7	X8	Y8	Z8	X9	Y9	Z9	X10	Y10	Z10	X11	Y11	Z11	X12	Y12	Z12	X13	Y13	Z13	X14	Y14	Z14	X15	Y15	Z15	X16	Y16	Z16	X17	Y17	Z17	X18	Y18	Z18	X19	Y19	Z19	X20	Y20	Z20	X21	Y21	Z21	X22	Y22	Z22	X23	Y23	Z23	X24	Y24	Z24	X25	Y25	Z25	X26	Y26	Z26	X27	Y27	Z27	X28	Y28	Z28	X29	Y29	Z29	X30	Y30	Z30	X31	Y31	Z31	X32	Y32	Z32	X33	Y33	Z33	X34	Y34	Z34	X35	Y35	Z35	

1243	10.35	65.39292144775386	1571.017578125	389.5913085937499	166.1857757568359	1534.301025390625	324.7912597656249	-24.99169921875003	1563.713623046875	267.5965881347655	75.54254913330075	1523.610473632812	193.564956665039	-8.62372207641606	1385.36279296875	358.8409729003906	-7.409483909606951	1388.482543945312	145.9083557128905	16.74056243896481	1336.491088867188	265.5841674804687	-35.61880111694339	1226.483154296875	259.7685852050781	-218.4232330322266	1389.567626953125	262.6491394042968	-429.4544677734376	1129.021484375	331.2292175292968	-433.2419738769531	1117.387573242188	212.4059448242186	-258.4044799804688	1093.054931640625	381.5166931152343	-254.3649444580078	1082.453857421875	156.7067413330077	134.2884368896484	1167.287475585938	491.3396301269531	314.2240600585937	1046.415283203125	410.3400268554688	336.6521911621093	1055.915161132812	471.0128479003906	418.3499145507812	1025.382202148438	402.4538879394531	91.16632080078119	1129.167602539062	457.0935668945312	99.47116851806639	1137.41650390625	81.0068740844726	150.7368621826172	1168.521362304688	52.41803741455073	320.6552124023438	1040.925415039062	148.1168212890625	342.5485534667969	1051.770874023438	83.86177825927732	405.5552673339844	1046.458129882812	154.6131896972656	-0.2331472933292807	821.6929931640625	341.8088378906249	-12.29784679412847	860.45361328125	458.1947021484374	-84.36311340332034	717.8981323242188	200.8644561767578	-108.462287902832	712.39111328125	75.39970397949213	-67.85952758789068	512.9700927734375	444.9898376464843	-48.60739898681645	521.4359130859375	365.4136352539062	112.9182968139648	459.9952697753906	399.7635498046875	-133.2526855468751	463.6737670898438	407.1067810058594	-148.3770751953125	287.195068359375	134.9775848388671	-275.4590148925781	423.2529907226562	169.9116210937499	-292.7050170898438	419.1593933105469	94.01043701171868	-371.2946472167969	405.2088928222656	134.0139617919921	
1244	10.35833333333333	64.6505966186523	1570.213623046875	388.8792724609374	165.5925598144531	1533.253662109375	324.3573303222655	-25.33588790893558	1563.077026367188	266.617462158203	75.31142425537107	1522.69189453125	192.8421325683593	-9.227003097534224	1384.753173828125	357.9471435546874	-8.339093208313006	1388.056762695312	145.1277313232421	15.35885334014889	1335.7060546875	264.3435974121093	-37.07531356811526	1225.957641601562	258.7155456542968	-219.2072448730469	1388.78759765625	262.6644287109374	-429.7890625000001	1127.054565429688	332.3059082031249	-434.2545776367188	1116.11376953125	213.2904205322264	-257.8800659179688	1091.1923828125	382.0261840820311	-255.7689514160157	1082.33349609375	156.9853363037109	134.2091979980468	1167.122802734375	490.9527587890624	314.2160949707031	1046.35986328125	410.2016296386719	336.6369934082031	1055.998291015625	470.7602233886719	418.2789001464843	1025.477416992188	402.1667785644531	91.07037353515619	1128.827758789062	456.9158325195312	99.12586212158202	1136.84716796875	81.1772842407226	150.1696014404297	1168.018798828125	52.22780227661128	320.3428039550781	1040.944580078125	147.9908599853515	342.2169189453125	1051.802612304688	83.71987152099607	405.2821044921875	1046.610717773438	154.4533996582031	-6.570341110229534	806.5944213867188	341.9383239746093	-17.03352928161627	845.21044921875	457.8745727539062	-77.6153259277344	726.3130493164062	201.8363647460937	-101.137191772461	721.9066162109375	75.94481658935541	-61.27762985229498	495.9612121582031	445.4768676757812	-45.65645599365239	504.9145812988281	365.8796386718749	119.9058532714843	442.2248229980469	399.8511047363281	-126.220199584961	447.2486877441406	407.5209655761719	-154.0648193359375	303.9043579101562	135.0989227294921	-280.0102844238281	439.95703125	170.4687042236328	-296.9974670410156	436.7873840332031	94.11090087890618	-376.2877197265625	423.8169250488281	134.0577087402343	
1245	10.36666666666667	63.86917495727534	1569.36181640625	388.0712585449218	164.9017486572265	1532.198120117188	323.8142700195311	-25.80307388305667	1562.260498046875	265.5738220214843	75.00438690185544	1521.66455078125	192.1131744384765	-9.834113121032759	1384.037109375	357.0190734863281	-9.406480789184588	1387.458862304688	144.2669372558593	13.62061214447018	1334.753540039062	263.1164245605468	-38.70020294189456	1225.342529296875	257.5717773437499	-219.9837188720703	1387.770141601562	262.6452941894531	-429.8530273437501	1124.79931640625	333.3460388183593	-435.0850524902344	1114.589599609375	214.1598358154296	-257.1107177734376	1088.894287109375	382.5010986328124	-257.0610656738281	1082.077880859375	157.1952972412109	134.1452941894531	1166.810424804688	490.5910034179687	314.3073120117187	1046.337524414062	409.9544067382812	336.7396240234374	1056.052001953125	470.4731750488281	418.3172912597656	1025.500122070312	401.8290100097656	91.08830261230463	1128.337524414062	456.5335083007812	98.69809722900389	1136.196166992188	81.18751525878901	149.5223388671875	1167.465698242188	51.78964233398433	319.9992370605469	1040.960571289062	147.764907836914	341.879638671875	1051.783203125	83.49121093749997	404.9264526367188	1046.7724609375	154.2484741210938	-16.2209796905518	790.0328369140625	341.6669921874999	-22.51685523986822	828.937255859375	457.6337280273437	-70.63285064697268	735.3525390625	202.8994140624999	-93.5632781982422	732.0266723632812	76.67335510253901	-56.31327438354498	478.4160461425781	446.0167846679687	-40.47071075439457	487.6116027832031	366.3898925781249	125.1574783325195	423.6937866210938	399.8611755371094	-120.1824417114258	430.63330078125	407.5485534667969	-158.3172607421875	321.0850524902344	135.3247985839843	-282.9784545898438	458.07080078125	171.0298614501953	-299.8475036621094	454.9003601074219	94.16739654541009	-379.9349365234375	442.5885314941406	134.0652618408202	
1246	10.375	62.99559020996089	1568.484375	387.1997985839843	164.2113494873047	1531.19775390625	323.2190551757811	-26.30965423583988	1561.312866210938	264.4848022460936	74.64183044433591	1520.595458984375	191.302505493164	-10.44367408752446	1383.160522460938	355.9720153808593	-9.496918678283709	1387.994873046875	142.6652679443359	11.84116649627682	1333.958129882812	261.7533264160156	-40.31237411499026	1224.603393554688	256.4385681152343	-220.7725524902344	1386.582885742188	262.6185302734374	-429.6701354980469	1122.22607421875	334.428741455078	-435.7030029296875	1112.889282226562	215.0569763183593	-256.0792236328126	1086.173217773438	382.9072875976561	-258.1850891113281	1081.763671875	157.3146972656249	133.985122680664	1166.575927734375	490.3694763183593	314.5097961425781	1046.384887695312	409.6827392578125	336.9053039550781	1056.107421875	470.1940612792969	418.4024658203124	1025.432739257812	401.443603515625	91.1438369750976	1127.70849609375	456.0019531249999	98.1865768432617	1135.536376953125	80.85171508789057	148.8050231933594	1166.82470703125	51.19086074829097	319.6793823242188	1040.994018554688	147.491470336914	341.5683288574219	1051.783569335938	83.24350738525388	404.5809020996094	1046.958251953125	153.9832916259766	-21.79279899597172	773.4228515625	341.9031677246093	-28.62327194213873	811.7982788085938	457.4692382812499	-63.43912124633792	745.0795288085938	203.9398651123046	-85.63411712646486	742.7053833007812	77.50336456298822	-53.05535888671881	460.7083129882812	445.8613891601562	-36.87194061279301	470.0719604492188	366.8487243652343	128.5298461914062	404.6072082519531	399.888671875	-116.6150131225587	414.2585754394531	407.781005859375	-161.1897888183594	339.3533935546875	135.9090270996093	-284.5154113769531	476.6043395996094	171.6177062988281	-301.3438110351562	473.244140625	94.34552764892571	-382.0847473144531	461.2490234375	134.098907470703	
1247	10.38333333333333	62.17570495605464	1567.609985351562	386.2867431640624	163.5289001464843	1530.254272460938	322.5107421874999	-26.85716629028324	1560.345336914062	263.3964538574218	74.2008361816406	1519.545166015625	190.440444946289	-10.96426486968998	1382.273315429688	354.8158264160156	-10.55801868438722	1387.27294921875	141.4948425292968	10.03583335876462	1333.09521484375	260.3428955078124	-41.82021713256839	1223.7919921875	255.2620849609374	-221.6048889160157	1385.30419921875	262.5570983886718	-429.2884521484376	1119.405883789062	335.5514831542968	-436.1635437011719	1111.097412109375	215.9801940917968	-254.8359069824219	1083.054321289062	383.1921386718749	-259.0823974609375	1081.3759765625	157.3528442382812	133.9510803222656	1165.714721679688	489.9453124999999	314.7551574707031	1046.433959960938	409.438232421875	337.1001892089843	1056.139526367188	469.964599609375	418.4715270996093	1025.368286132812	401.0318603515625	91.17035675048822	1126.962890625	455.4409179687499	97.59884643554686	1134.885986328125	80.16737365722651	148.1585693359375	1166.218017578125	50.3605232238769	319.2992553710938	1041.058471679688	147.1814727783203	341.2445068359375	1051.767578125	82.89167785644528	404.287841796875	1047.139038085938	153.7341613769531	-30.0703392028809	756.1376342773438	342.4338073730468	-35.39593887329107	794.1680908203125	457.4354858398437	-55.99865341186526	755.4850463867188	204.9571838378906	-77.3884735107422	753.9360961914062	78.26828765869135	-51.53738403320318	443.1465759277344	446.2860107421875	-34.88127899169926	452.6361389160156	367.2145080566406	130.0894317626953	385.21630859375	399.8390197753906	-114.9128189086915	398.1897277832031	407.9524536132812	-160.3549346923828	359.2610778808594	134.8338165283203	-284.5128479003906	495.2696533203125	172.2327117919921	-301.4333190917969	491.6741333007812	94.49392700195305	-382.4771423339844	479.8531799316406	134.4200744628905	
